<svg width="18" height="18" viewBox="0 0 18 18" fill="none" xmlns="http://www.w3.org/2000/svg">
<g clip-path="url(#clip0)">
<path d="M3.16585 13.9201C2.91385 13.9201 2.6716 13.983 2.45668 14.1011C1.32454 12.6498 0.703125 10.8469 0.703125 9C0.703125 4.42502 4.42502 0.703125 9 0.703125C9.55618 0.703125 10.1121 0.758469 10.6523 0.867645C10.8424 0.906097 11.0281 0.783051 11.0665 0.592712C11.105 0.402374 10.9819 0.21698 10.7916 0.178391C10.2056 0.0600128 9.60287 0 9 0C6.59605 0 4.33589 0.936172 2.63603 2.63603C0.936172 4.33589 0 6.59605 0 9C0 11.0222 0.686646 12.9956 1.93675 14.5776C1.7758 14.8181 1.68929 15.1007 1.68929 15.3967C1.68929 15.7911 1.84296 16.1618 2.12187 16.4406C2.40065 16.7195 2.77144 16.8732 3.16585 16.8732C3.56026 16.8732 3.93105 16.7195 4.20996 16.4406C4.48888 16.1618 4.64241 15.7909 4.64241 15.3965C4.64241 15.0022 4.48888 14.6313 4.20996 14.3525C3.93105 14.0736 3.56026 13.9201 3.16585 13.9201ZM3.71269 15.9435C3.56671 16.0896 3.37239 16.1701 3.16585 16.1701C2.9593 16.1701 2.76512 16.0896 2.619 15.9435C2.47289 15.7974 2.39241 15.6032 2.39241 15.3967C2.39241 15.19 2.47289 14.9958 2.619 14.8497C2.76498 14.7036 2.9593 14.6232 3.16585 14.6232C3.37239 14.6232 3.56657 14.7037 3.71269 14.8497C3.85881 14.9958 3.93929 15.19 3.93929 15.3967C3.93929 15.6032 3.85881 15.7974 3.71269 15.9435Z" fill="#333333"/>
<path d="M16.063 3.42195C16.4452 2.8486 16.3838 2.06473 15.8783 1.55922C15.5994 1.28044 15.2286 1.12677 14.8342 1.12677C14.4398 1.12677 14.069 1.28044 13.7901 1.55922C13.5111 1.83813 13.3576 2.20892 13.3576 2.60333C13.3576 2.99774 13.5111 3.36853 13.7901 3.64745C14.069 3.92636 14.4398 4.0799 14.8342 4.0799C15.0862 4.0799 15.3284 4.017 15.5433 3.8989C16.6755 5.35033 17.2969 7.15305 17.2969 8.99998C17.2969 13.575 13.575 17.2969 9.00002 17.2969C8.44933 17.2969 7.89864 17.2426 7.36347 17.1355C7.17313 17.0975 6.98787 17.2209 6.94969 17.4113C6.91165 17.6017 7.03511 17.7868 7.22545 17.825C7.80594 17.9411 8.40305 18 9.00002 18C11.404 18 13.6641 17.0638 15.364 15.364C17.0638 13.6641 18 11.4039 18 8.99998C18 6.97768 17.3132 5.00412 16.063 3.42195ZM14.2873 3.15031C14.1412 3.0042 14.0607 2.81001 14.0607 2.60333C14.0607 2.39679 14.1412 2.20261 14.2873 2.05649C14.4333 1.91037 14.6276 1.8299 14.8342 1.8299C15.0407 1.8299 15.235 1.91037 15.3812 2.05649C15.6826 2.35806 15.6826 2.84874 15.3812 3.15031C15.235 3.2963 15.0407 3.37677 14.8342 3.37677C14.6275 3.37677 14.4333 3.2963 14.2873 3.15031Z" fill="#333333"/>
<path d="M7.54926 15.0469C7.54926 15.2411 7.70677 15.3984 7.90082 15.3984H10.099C10.2932 15.3984 10.4506 15.2411 10.4506 15.0469V14.3653C10.9129 14.2409 11.3548 14.0577 11.7701 13.8185L12.2513 14.2997C12.3172 14.3656 12.4066 14.4027 12.5 14.4027C12.5931 14.4027 12.6826 14.3656 12.7485 14.2995L14.3023 12.7447C14.4395 12.6074 14.4395 12.3848 14.3023 12.2476L13.8216 11.7669C14.0609 11.3516 14.244 10.9097 14.3685 10.4474H15.0474C15.2416 10.4474 15.399 10.2901 15.399 10.0959V7.89766C15.399 7.70348 15.2416 7.5461 15.0474 7.5461H14.3683C14.2439 7.08398 14.0609 6.64206 13.8216 6.22678L14.2997 5.74873C14.3656 5.68282 14.4027 5.59328 14.4027 5.50003C14.4025 5.40678 14.3654 5.31725 14.2995 5.25133L12.7446 3.69759C12.6074 3.56039 12.3848 3.56039 12.2474 3.69772L11.7701 4.17522C11.3548 3.93599 10.9129 3.75279 10.4506 3.62837V2.95312C10.4506 2.75894 10.2932 2.60156 10.099 2.60156H7.90082C7.70677 2.60156 7.54926 2.75894 7.54926 2.95312V3.62851C7.08714 3.75279 6.64522 3.93599 6.22993 4.17522L5.75244 3.69772C5.61525 3.56053 5.39264 3.56039 5.25531 3.69759L3.70047 5.25146C3.63442 5.31738 3.59734 5.40678 3.59734 5.50003C3.59734 5.59328 3.63442 5.68282 3.70033 5.74873L4.17838 6.22678C3.93915 6.64206 3.75595 7.08385 3.63153 7.5461H2.95381C2.75963 7.5461 2.60225 7.70348 2.60225 7.89752L2.60101 10.0957C2.60088 10.189 2.63796 10.2785 2.70387 10.3445C2.76979 10.4104 2.85919 10.4474 2.95258 10.4474H3.63153C3.75595 10.9097 3.93915 11.3516 4.17838 11.7669L3.69772 12.2476C3.56053 12.3848 3.56039 12.6074 3.69772 12.7447L5.25147 14.2995C5.31738 14.3654 5.40678 14.4027 5.50003 14.4027H5.50017C5.59341 14.4027 5.68282 14.3656 5.74873 14.2997L6.2298 13.8185C6.64522 14.0577 7.08714 14.2409 7.54926 14.3653V15.0469ZM6.36768 13.0791C6.22856 12.9891 6.0455 13.0086 5.92822 13.1258L5.50017 13.5538L4.44342 12.4963L4.87106 12.0685C4.98821 11.9513 5.00771 11.7683 4.91776 11.6292C4.59901 11.1359 4.37489 10.5952 4.25185 10.022C4.21697 9.86009 4.07387 9.74432 3.90811 9.74432H3.30428L3.3051 8.24922H3.90811C4.07387 8.24922 4.21697 8.13359 4.25185 7.97154C4.37489 7.39847 4.59901 6.8578 4.91776 6.36452C5.00771 6.2254 4.98821 6.04234 4.87106 5.9252L4.44617 5.50017L5.50374 4.44342L5.92822 4.86804C6.0455 4.98518 6.22842 5.00455 6.36768 4.91473C6.86083 4.59599 7.40149 4.37187 7.9747 4.24883C8.13661 4.21394 8.25238 4.07071 8.25238 3.90509V3.30469H9.74748V3.90495C9.74748 4.07071 9.86311 4.21394 10.0252 4.24869C10.5982 4.37187 11.139 4.59586 11.6322 4.9146C11.7713 5.00455 11.9544 4.98518 12.0715 4.8679L12.4961 4.44342L13.5537 5.50017L13.1288 5.92506C13.0115 6.04234 12.9922 6.2254 13.0821 6.36452C13.4008 6.8578 13.6248 7.39847 13.748 7.97154C13.7828 8.13359 13.926 8.24922 14.0918 8.24922H14.6959V9.74432H14.0918C13.926 9.74432 13.7829 9.86009 13.748 10.022C13.625 10.5951 13.4008 11.1359 13.0821 11.629C12.9922 11.7683 13.0117 11.9513 13.1288 12.0685L13.5564 12.4961L12.4997 13.5537L12.0716 13.1258C11.9544 13.0085 11.7713 12.9891 11.6322 13.0791C11.1389 13.3978 10.5982 13.6218 10.0252 13.745C9.86311 13.7799 9.74748 13.923 9.74748 14.0887V14.6953H8.25238V14.0887C8.25238 13.9231 8.13661 13.7799 7.9747 13.745C7.40163 13.6219 6.86096 13.3978 6.36768 13.0791Z" fill="#333333"/>
<path d="M11.9049 9.00002C11.9049 7.39821 10.6018 6.09509 9.00002 6.09509C7.39821 6.09509 6.09509 7.39821 6.09509 9.00002C6.09509 10.6018 7.39821 11.9049 9.00002 11.9049C10.6018 11.9049 11.9049 10.6018 11.9049 9.00002ZM6.79822 9.00002C6.79822 7.78589 7.78589 6.79822 9.00002 6.79822C10.2141 6.79822 11.2018 7.78603 11.2018 9.00002C11.2018 10.214 10.2141 11.2018 9.00002 11.2018C7.78589 11.2018 6.79822 10.2141 6.79822 9.00002Z" fill="#333333"/>
<path d="M12.2371 1.32964C12.3297 1.32964 12.4203 1.29201 12.4857 1.22664C12.5511 1.16086 12.5887 1.07022 12.5887 0.977661C12.5887 0.885651 12.5512 0.794876 12.4857 0.729095C12.4203 0.663727 12.3297 0.626099 12.2371 0.626099C12.1443 0.626099 12.0541 0.663727 11.9887 0.729095C11.9232 0.794876 11.8856 0.885239 11.8856 0.977661C11.8856 1.0705 11.9232 1.16086 11.9887 1.22664C12.0541 1.29201 12.1443 1.32964 12.2371 1.32964Z" fill="#333333"/>
<path d="M5.77826 16.6767C5.68584 16.6767 5.59506 16.7143 5.52969 16.7797C5.46432 16.8451 5.4267 16.9358 5.4267 17.0283C5.4267 17.1211 5.46432 17.2115 5.52969 17.2768C5.59506 17.3422 5.68584 17.3798 5.77826 17.3798C5.87068 17.3798 5.96146 17.3422 6.02682 17.2768C6.09219 17.2115 6.12982 17.1207 6.12982 17.0283C6.12982 16.9358 6.09219 16.8451 6.02682 16.7797C5.96146 16.7143 5.87068 16.6767 5.77826 16.6767Z" fill="#333333"/>
</g>
<defs>
<clipPath id="clip0">
<rect width="18" height="18" fill="white"/>
</clipPath>
</defs>
</svg>
